<svg width="213" height="38" viewBox="0 0 213 38" fill="none" xmlns="http://www.w3.org/2000/svg">
<g clip-path="url(#clip0_1_587)" filter="url(#filter0_d_1_587)">
<path d="M11.5809 15.8921L23.1347 4.20981C23.9153 3.42394 24.9714 2.9828 26.0724 2.9828C27.1733 2.9828 28.2295 3.42394 29.01 4.20981L29.9079 5.11865L31.7078 3.29681L30.8099 2.38381C29.5509 1.11214 27.8449 0.397949 26.0662 0.397949C24.2876 0.397949 22.5816 1.11214 21.3225 2.38381L9.77692 14.0702L11.5809 15.8921Z" fill="#E9E9E9"/>
<path d="M27.0051 8.05711L25.2052 6.23526L13.6473 17.9341C12.8666 18.7238 11.8079 19.1673 10.7041 19.1669C9.60037 19.1665 8.54198 18.7223 7.76178 17.932C6.98158 17.1418 6.54348 16.0702 6.54386 14.9529C6.54425 13.8357 6.98308 12.7644 7.76383 11.9747L17.735 1.88191L15.9351 0.0600586L5.96393 10.1529C5.32916 10.7805 4.82372 11.5293 4.47691 12.3561C4.13009 13.1828 3.94878 14.071 3.94348 14.9691C3.93818 15.8673 4.10899 16.7576 4.44603 17.5884C4.78307 18.4193 5.27963 19.1742 5.90694 19.8095C6.53426 20.4447 7.27987 20.9476 8.10058 21.2891C8.92129 21.6307 9.80078 21.8039 10.6881 21.799C11.5755 21.794 12.453 21.6108 13.2699 21.2602C14.0868 20.9095 14.8269 20.3982 15.4472 19.756L27.0051 8.05711ZM38.5097 10.1529C37.2502 8.8822 35.5443 8.16871 33.766 8.16871C31.9877 8.16871 30.2819 8.8822 29.0223 10.1529L17.4644 21.8517L19.2643 23.6736L30.8222 11.9747C31.4044 11.3866 32.1458 10.9862 32.9527 10.8243C33.7595 10.6624 34.5957 10.7462 35.3556 11.065C36.1154 11.3839 36.7649 11.9235 37.2219 12.6157C37.679 13.308 37.9231 14.1218 37.9234 14.9544C37.9255 15.5091 37.8178 16.0585 37.6065 16.5703C37.3952 17.0821 37.0848 17.5458 36.6934 17.9341L26.7345 28.0269L28.5385 29.8488L38.5097 19.756C39.7661 18.4816 40.4717 16.7547 40.4717 14.9544C40.4717 13.1541 39.7661 11.4273 38.5097 10.1529Z" fill="#E9E9E9"/>
<path d="M32.8927 14.0166L21.3348 25.7113C20.5532 26.4999 19.4946 26.9428 18.391 26.9428C17.2874 26.9428 16.2288 26.4999 15.4472 25.7113L14.5493 24.7983L12.7494 26.6201L13.6473 27.5331C14.9069 28.8038 16.6127 29.5173 18.391 29.5173C20.1693 29.5173 21.8751 28.8038 23.1347 27.5331L34.6926 15.8302L32.8927 14.0166Z" fill="#E9E9E9"/>
<path d="M51.027 18.1C51.1453 18.7939 51.5188 19.4167 52.0725 19.843C52.7077 20.2877 53.47 20.508 54.2414 20.4696C54.9757 20.517 55.7026 20.2977 56.2914 19.8513C56.5261 19.6536 56.7132 19.4043 56.8382 19.1224C56.9633 18.8405 57.0231 18.5333 57.013 18.2245C57.0213 17.9355 56.9548 17.6494 56.8203 17.3945C56.6856 17.1631 56.5005 16.9658 56.2791 16.8176C56.0151 16.6402 55.7281 16.5005 55.4263 16.4026L54.2865 16.054L53.2 15.7552C52.5977 15.5937 52.0116 15.3755 51.4493 15.1037C50.9666 14.8726 50.5203 14.5706 50.125 14.2073C49.7724 13.8759 49.493 13.4728 49.305 13.0245C49.1045 12.5313 49.0068 12.0015 49.018 11.4683C49.0122 10.8775 49.1383 10.293 49.387 9.75847C49.6267 9.23827 49.9817 8.781 50.4243 8.42217C50.9112 8.02771 51.4678 7.73055 52.0643 7.54652C52.7614 7.32293 53.4897 7.21502 54.2209 7.22697C55.727 7.22697 56.9201 7.58663 57.8002 8.30597C58.2364 8.66152 58.5982 9.10159 58.8643 9.60041C59.1304 10.0992 59.2955 10.6468 59.35 11.211L56.89 11.4143C56.7683 10.843 56.4519 10.3332 55.9962 9.97427C55.4438 9.60048 54.7858 9.41977 54.1225 9.45967C53.4966 9.42242 52.8775 9.60735 52.3718 9.98257C52.1699 10.1419 52.0076 10.3469 51.8979 10.5811C51.7883 10.8153 51.7343 11.0722 51.7404 11.3313C51.7303 11.6075 51.7941 11.8814 51.9249 12.124C52.0568 12.3479 52.2378 12.5382 52.4538 12.6801C52.7172 12.8535 53.0009 12.9929 53.2984 13.0951C53.6305 13.2196 54.0077 13.3524 54.4259 13.4893L55.4673 13.8172C56.1151 14.0247 56.7014 14.2405 57.2262 14.4646C57.7088 14.6723 58.158 14.9521 58.5587 15.2946C58.9199 15.604 59.2084 15.9911 59.4033 16.4275C59.6143 16.9426 59.7149 17.497 59.6985 18.0543C59.7053 18.7058 59.5651 19.3502 59.2885 19.9384C59.0217 20.5034 58.6321 21 58.1487 21.3909C57.6293 21.8066 57.0386 22.1218 56.4062 22.3205C55.6857 22.5473 54.9344 22.658 54.1799 22.6484C52.8456 22.6987 51.5292 22.3242 50.4161 21.5777C49.8965 21.197 49.4614 20.7106 49.1387 20.1495C48.816 19.5884 48.6129 18.9652 48.5424 18.3199L51.027 18.1ZM70.0715 7.26847C71.1028 7.25496 72.1267 7.44672 73.085 7.83287C73.9602 8.18768 74.7501 8.72825 75.4015 9.41817C76.0551 10.1216 76.5614 10.9517 76.8898 11.8584C77.2504 12.855 77.4296 13.9095 77.4187 14.9709C77.4334 16.0517 77.2427 17.1252 76.857 18.1332C76.4974 19.0493 75.9544 19.8801 75.2621 20.5734L77.2137 22.8849V23.6029H74.7537L73.3884 21.9138C72.8938 22.1534 72.3757 22.3397 71.8427 22.4699C71.2674 22.5944 70.6804 22.6557 70.092 22.6525C69.0489 22.6589 68.0149 22.4558 67.0498 22.0549C66.1796 21.6978 65.3952 21.1558 64.7497 20.4655C64.1041 19.7652 63.606 18.9392 63.286 18.0377C62.9324 17.0509 62.7561 16.0081 62.7653 14.9584C62.7551 13.9019 62.9314 12.8521 63.286 11.8584C63.608 10.9538 64.1104 10.1261 64.762 9.42647C65.4118 8.73638 66.1984 8.19329 67.0703 7.83287C68.023 7.44214 69.0438 7.25017 70.0715 7.26847ZM70.051 9.49287C69.3741 9.4823 68.7033 9.62405 68.0871 9.90787C67.521 10.1726 67.0208 10.5626 66.6234 11.0491C66.2102 11.5593 65.8983 12.1455 65.705 12.7755C65.4911 13.477 65.386 14.2078 65.3934 14.9418C65.3862 15.6822 65.4956 16.4191 65.7173 17.1247C65.9159 17.7605 66.2302 18.353 66.6439 18.8719C67.0406 19.3643 67.5406 19.7612 68.1076 20.0339C68.7232 20.3197 69.3944 20.4615 70.0715 20.4489C70.7481 20.4555 71.418 20.314 72.0354 20.0339C72.6004 19.7748 73.1007 19.3904 73.4991 18.9092C73.9177 18.3983 74.2326 17.8088 74.4257 17.1745C74.65 16.4523 74.7607 15.6989 74.7537 14.9418C74.76 14.1957 74.6493 13.4533 74.4257 12.7423C74.2297 12.1118 73.9151 11.5255 73.4991 11.0159C73.0965 10.5346 72.5939 10.1492 72.0272 9.88712C71.4048 9.61125 70.7303 9.47668 70.051 9.49287ZM87.0824 20.5526C87.5382 20.581 87.9947 20.508 88.4196 20.3388C88.8446 20.1697 89.2279 19.9083 89.5424 19.5732C90.1246 18.9231 90.4157 17.9243 90.4157 16.5769V7.55482H92.97V16.6599C92.9902 17.5927 92.8515 18.5221 92.56 19.4072C92.3245 20.1162 91.9269 20.7589 91.3997 21.283C90.8767 21.7843 90.2426 22.1514 89.5506 22.3537C87.9408 22.8043 86.2404 22.8043 84.6306 22.3537C83.9411 22.1512 83.3098 21.784 82.7897 21.283C82.2638 20.7578 81.8665 20.1155 81.6294 19.4072C81.3381 18.522 81.1994 17.5927 81.2194 16.6599V7.55482H83.7819V16.5769C83.7819 17.9215 84.0744 18.9203 84.6593 19.5732C84.9694 19.9038 85.3466 20.1625 85.7649 20.3316C86.1831 20.5007 86.6326 20.5761 87.0824 20.5526ZM95.5284 21.6399L100.715 7.57142H104.561L109.69 21.6399V22.3454H107.168L105.701 18.1207H99.3742L97.89 22.3454H95.512L95.5284 21.6399ZM100.145 15.9129H104.971L104.175 13.564C103.864 12.6469 103.614 11.904 103.421 11.3189C103.228 10.7337 103.064 10.2357 102.913 9.79582H102.285L102.039 10.4972C101.957 10.7296 101.867 10.991 101.765 11.2774C101.662 11.5637 101.551 11.8957 101.428 12.2692C101.305 12.6427 101.158 13.0702 100.981 13.564L100.145 15.9129ZM124.015 22.3454H121.555L117.099 16.5354H115.459V22.3454H112.933V7.55482H117.677C118.387 7.55355 119.097 7.60487 119.8 7.70837C120.454 7.80428 121.078 8.04828 121.625 8.42217C122.778 9.1913 123.355 10.3505 123.355 11.8999C123.367 12.5003 123.265 13.0975 123.056 13.6595C122.879 14.1326 122.613 14.5667 122.273 14.9377C121.948 15.2863 121.567 15.5756 121.145 15.7926C120.722 16.0113 120.275 16.1772 119.813 16.2864L124.015 21.6399V22.3454ZM115.45 14.311H117.668C118.473 14.3544 119.273 14.1674 119.977 13.7715C120.26 13.5797 120.488 13.3147 120.637 13.0039C120.785 12.6931 120.849 12.3477 120.821 12.0036C120.855 11.6621 120.792 11.3179 120.641 11.0109C120.489 10.7039 120.254 10.4467 119.964 10.2689C119.253 9.91073 118.462 9.74219 117.668 9.77922H115.45V14.311ZM127.271 7.55482H136.733V9.82072H129.763V13.6927H136.233V15.9171H129.776V20.0671H136.877V22.3454H127.271V7.55482ZM142.535 18.1C142.653 18.7939 143.027 19.4167 143.58 19.843C144.216 20.2871 144.978 20.5074 145.749 20.4696C146.484 20.517 147.21 20.2977 147.799 19.8513C148.034 19.6536 148.221 19.4043 148.346 19.1224C148.471 18.8405 148.531 18.5333 148.521 18.2245C148.529 17.9355 148.463 17.6494 148.328 17.3945C148.193 17.1631 148.008 16.9658 147.787 16.8176C147.523 16.6402 147.236 16.5005 146.934 16.4026L145.794 16.054L144.696 15.7469C144.093 15.5854 143.507 15.3672 142.945 15.0954C142.462 14.8643 142.016 14.5623 141.621 14.199C141.268 13.8676 140.989 13.4645 140.801 13.0162C140.598 12.4939 140.501 11.9358 140.515 11.3748C140.529 10.8138 140.654 10.2614 140.883 9.75017C141.124 9.23083 141.478 8.77385 141.92 8.41387C142.407 8.01941 142.963 7.72225 143.56 7.53822C144.257 7.31463 144.985 7.20672 145.716 7.21867C147.223 7.21867 148.417 7.57833 149.3 8.29767C149.736 8.65344 150.097 9.09363 150.362 9.59246C150.627 10.0913 150.792 10.6387 150.846 11.2027L148.386 11.406C148.266 10.8359 147.953 10.3263 147.5 9.96597C146.948 9.59162 146.29 9.41085 145.626 9.45137C145 9.41412 144.381 9.59905 143.876 9.97427C143.674 10.134 143.513 10.3392 143.404 10.5734C143.295 10.8075 143.242 11.0643 143.248 11.323C143.237 11.5988 143.299 11.8727 143.429 12.1157C143.561 12.3396 143.742 12.5299 143.958 12.6718C144.221 12.8452 144.505 12.9846 144.802 13.0868C145.134 13.2113 145.512 13.3441 145.934 13.481L146.971 13.8089C147.622 14.0164 148.208 14.2322 148.73 14.4563C149.213 14.664 149.662 14.9438 150.063 15.2863C150.424 15.5957 150.712 15.9828 150.907 16.4192C151.118 16.9343 151.219 17.4887 151.202 18.046C151.209 18.6975 151.069 19.3419 150.792 19.9301C150.527 20.496 150.137 20.9928 149.653 21.3826C149.132 21.795 148.542 22.1072 147.91 22.3039C147.188 22.5307 146.435 22.6413 145.68 22.6318C144.345 22.6815 143.029 22.3071 141.916 21.5611C141.4 21.1815 140.967 20.6973 140.646 20.1392C140.325 19.5812 140.122 18.9616 140.05 18.3199L142.535 18.1ZM154.843 7.55482H160.173C161.018 7.53275 161.86 7.65193 162.666 7.90757C163.278 8.09868 163.839 8.42948 164.306 8.87452C164.716 9.27816 165.023 9.77665 165.2 10.327C165.388 10.9082 165.48 11.5166 165.474 12.1281C165.491 12.8172 165.363 13.5019 165.097 14.1367C164.858 14.6918 164.484 15.177 164.011 15.5477C163.493 15.9358 162.905 16.2177 162.28 16.3777C161.529 16.5728 160.756 16.6663 159.98 16.6558H157.397V22.3454H154.851L154.843 7.55482ZM157.389 14.4355H159.829C160.241 14.4386 160.653 14.4011 161.059 14.3235C161.404 14.2581 161.734 14.1301 162.035 13.9458C162.311 13.7709 162.536 13.5245 162.686 13.232C162.852 12.8886 162.932 12.5098 162.92 12.1281C162.932 11.737 162.852 11.3486 162.686 10.9952C162.54 10.6989 162.318 10.4481 162.043 10.2689C161.748 10.0833 161.421 9.95519 161.079 9.89127C160.674 9.81303 160.262 9.7755 159.849 9.77922H157.369L157.389 14.4355ZM166.18 21.6399L171.37 7.57142H175.216L180.341 21.6399V22.3454H177.84L176.376 18.1207H170.025L168.562 22.3454H166.18V21.6399ZM170.8 15.9129H175.622L174.827 13.564C174.515 12.6469 174.265 11.904 174.076 11.3189L173.568 9.79582H172.92L172.674 10.4972C172.592 10.7296 172.502 10.991 172.399 11.2774C172.297 11.5637 172.186 11.8957 172.063 12.2692C171.94 12.6427 171.792 13.0702 171.616 13.564L170.8 15.9129ZM195.847 18.432C195.616 19.0106 195.313 19.5572 194.945 20.0588C194.564 20.5729 194.106 21.0238 193.588 21.3951C193.026 21.7945 192.405 22.1 191.747 22.2998C190.992 22.5287 190.207 22.6406 189.418 22.6318C188.4 22.6474 187.39 22.4511 186.45 22.0549C185.589 21.6914 184.814 21.1484 184.174 20.4613C183.532 19.7585 183.037 18.9312 182.719 18.0294C182.371 17.0485 182.198 16.013 182.206 14.9709C182.197 13.9287 182.371 12.8931 182.719 11.9123C183.038 11.0065 183.536 10.1761 184.183 9.47212C184.826 8.7777 185.605 8.22649 186.47 7.85362C187.413 7.45226 188.428 7.25302 189.451 7.26847C190.874 7.21727 192.277 7.61302 193.469 8.40142C194.528 9.13182 195.331 10.184 195.761 11.406L193.174 11.9206C192.852 11.2018 192.341 10.5861 191.698 10.1403C191.018 9.69456 190.22 9.46877 189.41 9.49287C188.746 9.47815 188.088 9.62024 187.487 9.90787C186.934 10.1825 186.448 10.5779 186.065 11.0657C185.662 11.5853 185.361 12.1785 185.179 12.8129C184.97 13.511 184.866 14.2372 184.872 14.9667C184.865 15.701 184.972 16.4318 185.187 17.133C185.38 17.7611 185.69 18.3458 186.102 18.8553C186.503 19.3337 187.002 19.7175 187.565 19.9799C188.178 20.2645 188.847 20.4063 189.521 20.3949C190.359 20.429 191.185 20.1825 191.87 19.6936C192.474 19.2455 192.966 18.6598 193.305 17.9838L195.847 18.432ZM199.287 7.55482H208.75V9.82072H201.78V13.6927H208.262V15.9171H201.792V20.0671H208.893V22.3454H199.287V7.55482Z" fill="#E9E9E9"/>
</g>
<defs>
<filter id="filter0_d_1_587" x="0" y="0" width="213" height="38" filterUnits="userSpaceOnUse" color-interpolation-filters="sRGB">
<feFlood flood-opacity="0" result="BackgroundImageFix"/>
<feColorMatrix in="SourceAlpha" type="matrix" values="0 0 0 0 0 0 0 0 0 0 0 0 0 0 0 0 0 0 127 0" result="hardAlpha"/>
<feOffset dy="4"/>
<feGaussianBlur stdDeviation="2"/>
<feComposite in2="hardAlpha" operator="out"/>
<feColorMatrix type="matrix" values="0 0 0 0 0 0 0 0 0 0 0 0 0 0 0 0 0 0 0.25 0"/>
<feBlend mode="normal" in2="BackgroundImageFix" result="effect1_dropShadow_1_587"/>
<feBlend mode="normal" in="SourceGraphic" in2="effect1_dropShadow_1_587" result="shape"/>
</filter>
<clipPath id="clip0_1_587">
<rect width="205" height="30" fill="white" transform="translate(4)"/>
</clipPath>
</defs>
</svg>
